<svg role="img" viewBox="0 0 24 24" xmlns="http://www.w3.org/2000/svg"><title>Node.js</title><path d="M11.998 24c-.321 0-.641-.084-.922-.247l-2.936-1.737c-.438-.245-.224-.332-.08-.383.585-.203.703-.25 1.328-.604.065-.037.15-.023.218.017l2.256 1.339a.29.29 0 0 0 .272 0l8.795-5.076a.277.277 0 0 0 .134-.238V6.921a.28.28 0 0 0-.137-.242l-8.791-5.072a.278.278 0 0 0-.271 0L3.075 6.68a.28.28 0 0 0-.138.24v10.15c0 .099.053.19.137.242l2.412 1.392c1.307.654 2.108-.116 2.108-.89V7.787c0-.142.114-.253.256-.253h1.115c.139 0 .255.112.255.253v10.021c0 1.745-.95 2.745-2.604 2.745-.508 0-.909 0-2.026-.551l-2.31-1.33A1.85 1.85 0 0 1 1.36 17.07V6.921c0-.644.342-1.246.897-1.567l8.795-5.082a1.918 1.918 0 0 1 1.846 0l8.794 5.082c.555.321.898.923.898 1.567v10.15a1.85 1.85 0 0 1-.898 1.567l-8.794 5.076a1.834 1.834 0 0 1-.9.247z" fill="#5FA04E"/></svg>
